<?xml version="1.0" encoding="utf-8"?>
<!-- Generator: Adobe Illustrator 23.0.5, SVG Export Plug-In . SVG Version: 6.00 Build 0)  -->
<svg version="1.1" xmlns="http://www.w3.org/2000/svg" xmlns:xlink="http://www.w3.org/1999/xlink" x="0px" y="0px"
	 viewBox="0 0 558.4 519.6" style="enable-background:new 0 0 558.4 519.6;" xml:space="preserve">
<style type="text/css">
	.st0{fill:#FFFFFF;}
	.st1{fill:#F5F2EE;}
	.st2{fill:#E6D7D4;}
	.st3{fill:#FF9F87;}
	.st4{fill:#21191B;}
	.st5{fill:#3F3538;}
	.st6{fill:#098AAD;}
	.st7{fill:#00BAE5;}
	.st8{fill:#FF7E6A;}
</style>
<g id="BACKGROUND">
	<ellipse class="st0" cx="271.5" cy="261.2" rx="241.2" ry="242.9"/>
	<circle class="st1" cx="270.8" cy="292.8" r="213"/>
</g>
<g id="OBJECTS">
	<g>
		<g>
			<g>
				<path class="st2" d="M117.2,269.1c5.6-23.1,18.9-43.8,38.1-58.4c13.4-10.2,31.2-18.5,51.4-15.4c45.1,6.9,93,68.9,143.2,59.3
					c50.3-9.7,90.7,29.9,84,92.3c-6.6,62.5-117,111.2-215,84.1C134.8,407.8,101.6,333.5,117.2,269.1z"/>
			</g>
		</g>
		<g>
			<g>
				<g>
					<path class="st2" d="M439.4,223.2c0,0-4.6-15.7-14.6-14.6c-10,1.1-11.5,5.7-19.9,2.3c-8.4-3.4-11.5-14.6-25.3-11.9
						c-13.8,2.7-15.3,18-31,16.9c-15.7-1.1-21.1-1.5-26.8,7.3H439.4L439.4,223.2z"/>
				</g>
			</g>
			<g>
				<g>
					<path class="st2" d="M250.5,162c0,0-6.3-13.9-23.5-9.8c-17,4.1-24.3-20.3-39.5-18.7c-15.1,1.6-13.8,11.1-33.1,14.2
						c-19.3,3.1-20.9,0-29,14.3H250.5z"/>
				</g>
			</g>
		</g>
		<g>
			<g>
				<path class="st2" d="M436.5,369.3c0.6,0,1.1-0.4,1.3-1c5.1-18.5,6.7-36,4.7-51.9c-1.6-12.8-5.6-24.6-11.8-35
					c-10.5-17.9-23.6-25.7-24.2-26c-0.6-0.4-1.5-0.2-1.8,0.5c-0.4,0.6-0.2,1.5,0.5,1.8l0,0c0.1,0.1,13.2,7.9,23.3,25.2
					c9.4,16,18.1,43.7,6.7,84.7c-0.2,0.7,0.2,1.5,0.9,1.7C436.3,369.3,436.4,369.3,436.5,369.3z"/>
			</g>
		</g>
		<g>
			<g>
				<path class="st2" d="M127.9,230.6c0.4,0,0.8-0.2,1.1-0.6c20.7-28.6,43-37.6,58.1-40.1c16.3-2.7,27.8,1.3,27.9,1.3
					c0.7,0.3,1.5-0.1,1.7-0.8c0.3-0.7-0.1-1.5-0.8-1.7c-0.5-0.2-12.3-4.3-29.2-1.5c-9.9,1.7-19.6,5.4-28.7,11
					c-11.3,7.1-21.8,17.2-31.2,30.1c-0.4,0.6-0.3,1.4,0.3,1.9C127.3,230.5,127.6,230.6,127.9,230.6z"/>
			</g>
		</g>
		<g>
			<g>
				<path class="st2" d="M175.4,427.5c0.5,0,1-0.3,1.2-0.7c0.3-0.7,0.1-1.5-0.6-1.8c-20.3-10.7-34.8-28-43.5-40.6
					c-9.4-13.7-14-25-14.1-25.1c-0.3-0.7-1.1-1-1.8-0.7c-0.7,0.3-1,1.1-0.7,1.8c0,0.1,4.8,11.7,14.3,25.6
					c8.8,12.9,23.7,30.6,44.5,41.5C175,427.5,175.2,427.5,175.4,427.5z"/>
			</g>
		</g>
	</g>
	<g>
		<g>
			<path class="st3" d="M350.2,469.6c0,0-1.3,15.9-5.9,30.3s-6.5,17.2-6.5,17.2S315.2,461,350.2,469.6z"/>
		</g>
		<g>
			<g>
				<polygon class="st4" points="337.1,520.6 345.8,474.4 264.5,477.1 260.7,520.6 				"/>
			</g>
		</g>
		<g>
			<g>
				<g>
					<path class="st4" d="M276.1,520.6c6.5-22.8,11.1-38.9,11.1-38.9l-87.3-23.3l-9.3,62.3H276.1z"/>
				</g>
			</g>
			<g>
				<g>
					<g>
						<g>
							<g>
								<g>
									<g>
										<g>
											<path class="st5" d="M205.3,520.6l7.6-51.4c0.1-0.9-0.5-1.7-1.4-1.9c-0.9-0.1-1.7,0.5-1.9,1.4l-7.7,51.9H205.3z"/>
										</g>
									</g>
								</g>
							</g>
						</g>
					</g>
				</g>
			</g>
		</g>
		<g>
			<g>
				<g>
					<path class="st6" d="M348.1,475.6c4-0.8,7.1-4.1,7.7-8.2c4.3-27.9,1-81.6-4.1-117.9c-9.7-68.6-22.6-168-22.6-168
						c-8.5,46.2-13.8,235.8-0.6,291.6C335.4,475.8,342,476.9,348.1,475.6z"/>
				</g>
				<g>
					<g>
						<path class="st7" d="M343.4,415.8c-0.3-2.6-0.5-5.3-0.8-8c-0.1-0.9-0.2-1.9-0.3-2.8c-0.2-2.5-0.5-5.1-0.7-7.6
							c-0.1-1.3-0.2-2.6-0.4-3.9c-0.1-1.4-0.3-2.7-0.4-4.1c-0.1-0.8-0.1-1.5-0.2-2.3c-0.1-0.7-0.1-1.4-0.2-2.1
							c-0.2-1.6-0.3-3.3-0.4-4.9c0-0.4-0.1-0.9-0.1-1.3c0-0.4-0.1-0.9-0.1-1.3c-0.2-2.2-0.4-4.5-0.5-6.7c-0.1-1.1-0.2-2.2-0.2-3.3
							c-0.1-0.9-0.1-1.7-0.2-2.6c0-0.3,0-0.5-0.1-0.8c0-0.5-0.1-1.1-0.1-1.6c-0.1-0.9-0.1-1.8-0.2-2.6c0-0.8-0.1-1.5-0.1-2.2
							c0-0.9-0.1-1.8-0.1-2.6c-0.1-1.8-0.1-3.6-0.2-5.4c-0.1-2.8-0.1-5.5-0.1-8.1c0-1.4,0-2.8,0.1-4.1c0-0.4,0-0.9,0-1.3
							c0-0.9,0-1.9,0-2.8c0-3.5,0-7.4-0.1-11.5c0-1,0-2-0.1-3c0-0.1,0-0.1,0-0.2c0-0.9,0-1.8-0.1-2.8c0-1-0.1-2-0.1-3.1
							c0,0,0-0.1,0-0.1c0-0.4,0-0.8,0-1.2c0-0.5,0-0.9-0.1-1.4c0-0.4,0-0.9-0.1-1.3c0-1.3-0.1-2.5-0.1-3.8c-0.1-1.3-0.1-2.5-0.2-3.8
							c0-0.8-0.1-1.7-0.1-2.5c-0.1-2.2-0.2-4.5-0.3-6.8c0-0.5,0-0.9-0.1-1.4c0-0.4,0-0.8,0-1.1c-0.1-2.8-0.2-5.6-0.3-8.5
							c0-0.9-0.1-1.8-0.1-2.7c0-0.8-0.1-1.6-0.1-2.5c0-0.9-0.1-1.8-0.1-2.7c0-0.1,0-0.1,0-0.2c0-1.1-0.1-2.2-0.1-3.3
							c0-0.7,0-1.4-0.1-2c-0.1-5.2-0.2-10.4-0.3-15.6c0-1.8,0-3.6,0-5.4c0-0.3,0-0.7,0-1c0.1-10.5-0.4-22.9-0.4-32.1
							c0-28.9-11.5-48.7-36.7-56.9l-19.2-6.2c-6.7-2.2-14-1.7-20.4,1.4c-11.1,5.3-28.8,14.6-42.1,25.5c-1.6,1.4-3.2,2.8-4.7,4.2
							c-6.5,6.1-11.2,12.7-12.3,19.2c-0.3,1.6-0.6,4-0.9,7c-0.2,1.6-0.4,3.5-0.6,5.5c-1.4,13.4-3.1,34.9-4.7,59.9
							c0,0.7-0.1,1.4-0.1,2.1c-0.1,2-0.3,4.1-0.4,6.2c0,0.8-0.1,1.7-0.1,2.5c0,0.9-0.1,1.8-0.2,2.7c-0.1,1.1-0.1,2.3-0.2,3.4
							c0,0.9-0.1,1.8-0.1,2.7c0,0.8-0.1,1.6-0.1,2.5c0,0.7-0.1,1.5-0.1,2.2c-0.1,1.2-0.1,2.4-0.2,3.6c0,0.7-0.1,1.4-0.1,2.1
							c-0.2,2.9-0.3,5.9-0.4,8.8c-0.2,4.5-0.4,9-0.6,13.6c0,0.7-0.1,1.4-0.1,2.2c-0.1,1.6-0.1,3.2-0.2,4.8c-0.1,2.5-0.2,5.1-0.3,7.6
							c-0.2,5.4-0.3,10.8-0.5,16.2c-0.1,2.3-0.1,4.6-0.2,6.9c0,0.6,0,1.2,0,1.7c0,1.7-0.1,3.4-0.1,5c0,0.3,0,0.6,0,1
							c0,1.1,0,2.2-0.1,3.3c0,1.2,0,2.5,0,3.7c0,1.3,0,2.6,0,3.9c0,2.2,0,4.5,0,6.7c0,0.8,0,1.6,0,2.4v2.1c0,1.2,0,2.4,0,3.5
							c0,3.6,0,7,0.1,10.5c0,1.9,0.1,3.8,0.1,5.7c0,0.8,0,1.6,0.1,2.3c0,0.8,0,1.6,0.1,2.4c1,34.5,4.2,60.2,11.2,64.2
							c22.6,12.9,123.7,14.4,139,6.4C349,483.3,346.8,451.4,343.4,415.8z M201.6,383.5l-7.8-30.8c4.1-13.4,8.8-26.4,14-39
							L201.6,383.5z"/>
					</g>
				</g>
				<g>
					<g>
						<path class="st6" d="M229.1,403.5c-0.8,0-1.5-0.6-1.5-1.4c-0.1-0.9,0.5-1.6,1.4-1.7l0,0c0.2,0,17.1-1.9,36-12.4
							c17.4-9.6,40-28.5,49.1-64.5c0.2-0.8,1.1-1.3,1.9-1.1c0.8,0.2,1.3,1.1,1.1,1.9c-4.1,16.4-11.3,30.7-21.4,42.6
							c-8,9.5-17.9,17.6-29.3,23.9c-19.4,10.7-36.4,12.6-37.1,12.7C229.2,403.5,229.2,403.5,229.1,403.5z"/>
					</g>
				</g>
				<g>
					<g>
						<g>
							<path class="st6" d="M300.6,182.9c0.2,1.8-1.2,3.4-3,3.5c-1.8,0.2-3.4-1.2-3.5-3c-0.2-1.8,1.2-3.4,3-3.5
								C298.9,179.8,300.4,181.1,300.6,182.9z"/>
						</g>
					</g>
				</g>
				<g>
					<g>
						<g>
							<path class="st6" d="M301.9,197.6c0.2,1.8-1.2,3.4-3,3.5c-1.8,0.2-3.4-1.2-3.5-3c-0.2-1.8,1.2-3.4,3-3.5
								C300.1,194.5,301.7,195.8,301.9,197.6z"/>
						</g>
					</g>
				</g>
				<g>
					<g>
						<g>
							<path class="st6" d="M303.5,216.4c0.2,1.8-1.2,3.4-3,3.5c-1.8,0.2-3.4-1.2-3.5-3c-0.2-1.8,1.2-3.4,3-3.5
								C301.7,213.3,303.3,214.6,303.5,216.4z"/>
						</g>
					</g>
				</g>
				<g>
					<g>
						<g>
							<path class="st6" d="M299.2,175.6C299.2,175.6,299.2,175.6,299.2,175.6c-23.4,0.9-41.5-12.4-42.2-12.9
								c-0.6-0.4-0.7-1.2-0.3-1.8c0.4-0.6,1.2-0.7,1.8-0.3c0.2,0.1,18.1,13.3,40.5,12.4c0.7,0,1.3,0.5,1.3,1.2
								C300.4,175,299.9,175.5,299.2,175.6z"/>
						</g>
					</g>
				</g>
				<g>
					<g>
						<g>
							<g>
								<g>
									<path class="st6" d="M223.4,456.3c0.1,0,0.3,0,0.4-0.1c0.7-0.2,1-1,0.8-1.6c-12.1-35.2-24.5-72.1-30.8-101.8
										c9-30.9,29.2-75,48.7-117.7c0.3-0.6,0-1.4-0.6-1.7c-0.6-0.3-1.4,0-1.7,0.6c-19.6,42.9-39.9,87.3-48.9,118.4
										c-0.1,0.2-0.1,0.4,0,0.6c6.4,30,18.8,67,31,102.5C222.3,455.9,222.8,456.3,223.4,456.3z"/>
								</g>
							</g>
						</g>
					</g>
				</g>
				<g>
					<g>
						<g>
							<g>
								<g>
									<g>
										<path class="st7" d="M233,254.5c0.3,0,0.5-0.1,0.7-0.2l14.2-9.7c0.6-0.4,0.7-1.2,0.3-1.8c-0.4-0.6-1.2-0.7-1.8-0.3
											l-14.2,9.7c-0.6,0.4-0.7,1.2-0.3,1.8C232.1,254.3,232.6,254.5,233,254.5z"/>
									</g>
								</g>
							</g>
						</g>
					</g>
				</g>
				<g>
					<g>
						<g>
							<g>
								<g>
									<g>
										<path class="st6" d="M259.8,450.9c14.1,0,27.5-2.6,38-5.5c19.1-5.2,32.8-12.5,32.9-12.5c0.8-0.4,1.1-1.4,0.7-2.2
											c-0.4-0.8-1.4-1.1-2.2-0.7c-0.5,0.3-53.7,28.1-97.9,13.3c-0.9-0.3-1.8,0.2-2.1,1c-0.3,0.9,0.2,1.8,1,2.1
											C240,449.7,250.1,450.9,259.8,450.9z"/>
									</g>
								</g>
							</g>
						</g>
					</g>
				</g>
				<g>
					<g>
						<g>
							<g>
								<g>
									<g>
										<path class="st6" d="M272.5,466.4c7.7,0,15.5-0.8,21.8-3.2c0.9-0.3,1.3-1.3,1-2.1c-0.3-0.9-1.3-1.3-2.1-1
											c-17.4,6.6-49.3,0-49.6-0.1c-0.9-0.2-1.8,0.4-2,1.3c-0.2,0.9,0.4,1.8,1.3,2C243.8,463.5,257.8,466.4,272.5,466.4z"/>
									</g>
								</g>
							</g>
						</g>
					</g>
				</g>
			</g>
			<g>
				<g>
					<g>
						<g>
							<g>
								<g>
									<g>
										<path class="st7" d="M246.6,216.7L246.6,216.7c-2.7,5.6-5.3,11.4-8,17.2l-7.9,17.3c-5.2,11.5-10.3,23.1-15.3,34.6
											c-5,11.5-9.9,23.1-14.4,34.6c-2.2,5.7-4.4,11.5-6.3,17c-0.9,2.8-1.8,5.5-2.5,8c-0.3,1.2-0.7,2.4-0.9,3.4
											c-0.1,0.3-0.1,0.5-0.1,0.6l-0.1,0.3c0,0,0,0,0,0v0c0,0,0,0,0,0c0,0,0,0,0,0v0.1c0,0.1,0,0.2-0.1,0.2c0,0.3-0.1,0.6,0,1
											c0,0.2,0,0.4,0,0.6l0,0.7c0,0.5,0.1,1.1,0.1,1.6l0.2,1.8c0.3,2.5,0.7,5.2,1.2,8c1,5.6,2.4,11.4,4,17.3
											c3.1,11.7,6.7,23.7,10.6,35.5c3.9,11.9,8,23.8,12.3,35.6c2.1,5.9,4.3,11.9,6.5,17.8l3.3,8.8l3.4,8.7l0.1,0.3
											c3.4,8.8-0.7,18.8-9.4,22.7c-9,4-19.5-0.1-23.5-9.1l-4-8.9l-3.9-8.9c-2.6-5.9-5.1-11.9-7.6-17.8
											c-5-11.9-9.8-23.9-14.5-36.1c-4.6-12.2-9.1-24.4-13.1-37.2c-1.6-5-3.1-10-4.5-15.3c-0.4-1.5-0.8-3-1.1-4.5
											c-0.8-3.5-1.6-7-2.2-10.8l-0.5-2.9c-0.1-1-0.3-2-0.4-3.1l-0.2-1.6c0-0.6-0.1-1.2-0.1-1.7c-0.1-1.1-0.1-2.5-0.1-3.7
											l0.1-2.1l0-0.5l0.1-0.6l0.1-1.2l0.1-0.6l0.1-0.6l0.1-0.9c0.1-0.6,0.2-1.2,0.3-1.7c0.4-2.2,0.8-4.1,1.3-6
											c0.9-3.7,1.8-7.1,2.8-10.4c0,0,0-0.1,0-0.1c1.9-6.6,4-12.8,6.1-19c4.3-12.5,8.7-24.6,13.3-36.7c4.6-12.1,9.3-24.1,14.1-36
											l7.2-17.9c2.4-6,4.9-11.9,7.4-17.9c0.1-0.3,0.3-0.7,0.5-1c5.9-12.5,20.9-17.9,33.4-12
											C247.1,189.2,252.5,204.2,246.6,216.7z"/>
									</g>
									<g>
										<g>
											<path class="st7" d="M249.6,202.2c-0.1,0-0.2,0.1-0.2,0.1c-0.7,0.1-1.5-0.3-1.8-1c-3.9-10.6-9.8-17.3-17.5-20
												c-6.2-2.2-12.6-1.4-17.5,0c1.5-1.4,3.1-2.8,4.7-4.2c4.3-0.6,9.1-0.4,13.8,1.3c8.6,3,15.1,10.4,19.4,21.9
												C250.8,201,250.4,201.9,249.6,202.2z"/>
										</g>
									</g>
								</g>
							</g>
						</g>
					</g>
				</g>
				<g>
					<path class="st6" d="M152.2,377.2c-0.4-1.5-0.8-3-1.1-4.5c-0.8-3.5-1.6-7-2.2-10.8l-0.5-2.9c-0.1-1-0.3-2-0.4-3.1l-0.2-1.6
						c0-0.6-0.1-1.2-0.1-1.7c-0.1-1.1-0.1-2.5-0.1-3.7l0.1-2.1l0-0.5l0.1-0.6l0.1-1.2l0.1-0.6l0.1-0.6l0.1-0.9
						c0.1-0.6,0.2-1.2,0.3-1.7c0.4-2.2,0.8-4.1,1.3-6c0.9-3.7,1.8-7.1,2.8-10.4c0,0,0-0.1,0-0.1
						C158.1,335.5,170.6,366.8,152.2,377.2z"/>
				</g>
				<g>
					<g>
						<g>
							<g>
								<g>
									<path class="st3" d="M228.9,520.6l11-5.9c0.1,0,0.1-0.1,0.2-0.1c3.4-1.9,4.3-6.4,1.9-9.5c-4-5.1-10.9-13.7-10.9-13.7
										c-11.5-1.5-20,3.2-27,10.8c0,0,0,10.2,3,18.4H228.9z"/>
								</g>
							</g>
						</g>
					</g>
				</g>
				<g>
					<g>
						<path class="st5" d="M234.8,520.6c10.4-7.2,14.7-15.4,14.9-15.9c0.5-0.9,0.1-2-0.8-2.4c-0.9-0.5-2-0.1-2.4,0.8
							c-0.1,0.1-5.4,10.3-18.7,17.6H234.8z"/>
					</g>
				</g>
				<g>
					<g>
						<g>
							<g>
								<g>
									<g>
										<path class="st6" d="M191.3,357.6c0.8,0,1.4-0.5,1.6-1.3c0.2-0.9-0.4-1.8-1.2-2l-20.9-4.8c-0.9-0.2-1.8,0.3-2,1.2
											c-0.2,0.9,0.4,1.8,1.2,2l20.9,4.8C191,357.6,191.1,357.6,191.3,357.6z"/>
									</g>
								</g>
							</g>
						</g>
					</g>
				</g>
				<g>
					<g>
						<g>
							<g>
								<g>
									<g>
										<path class="st6" d="M171.4,361.1c0.2,0,0.4,0,0.6-0.1l12.7-5.2c0.8-0.3,1.3-1.3,0.9-2.1c-0.3-0.8-1.3-1.3-2.1-0.9
											l-12.7,5.2c-0.8,0.3-1.3,1.3-0.9,2.1C170.2,360.7,170.8,361.1,171.4,361.1z"/>
									</g>
								</g>
							</g>
						</g>
					</g>
				</g>
			</g>
		</g>
		<g>
			<g>
				<path class="st4" d="M253.8,77.9c0,0-8-10.2-4.8-19.7c3.1-9.4,15.1-10.2,15.1-10.2s-2.2-10.4,5.2-13.8
					c7.4-3.4,34.8,2.5,49.8-0.8c14.2-3.2,17.6-10.5,17.6-10.5s10.9,33.8-11.5,37.5C302.7,64.1,262.3,62.1,253.8,77.9z"/>
			</g>
			<g>
				<path class="st4" d="M254.7,79.8c-0.5-0.3-11.5-8.4-9-18.6c2.2-9.2,10.3-11,16.8-12.5c0.8-0.2,1.6-0.4,2.3-0.5l0.3,1.1
					c-0.8,0.2-1.5,0.4-2.3,0.6c-6.5,1.5-13.9,3.2-15.9,11.6c-2.3,9.4,8.5,17.3,8.6,17.4L254.7,79.8z"/>
			</g>
			<g>
				<path class="st4" d="M326.4,60.9c-1.4,0-2.4-0.2-2.5-0.2l0.2-1.1c0.1,0,7.9,1.3,12.3-3.8c3.9-4.4,4.2-12.2,0.8-23.2l1.1-0.3
					c3.5,11.4,3.1,19.6-1.1,24.3C334,60.3,329.3,60.9,326.4,60.9z"/>
			</g>
			<g>
				<g>
					<g>
						<g>
							<g>
								<path class="st3" d="M300,164.1c0,0,0,0-0.1,0c-0.7,0.2-4.7,1.1-10.3,1.5h-0.1c-7.4,0.2-18-1.2-29.1-8.2l0.4-21.3l0.4-22.8
									l5.2,1.6l32.6,9.9l0.6,26.5L300,164.1z"/>
							</g>
						</g>
					</g>
				</g>
				<g>
					<g>
						<g>
							<g>
								<path class="st4" d="M272.6,119.6c0,0,2.2,30.2,27.2,34l-0.7-28.8L272.6,119.6z"/>
							</g>
						</g>
					</g>
				</g>
			</g>
			<g>
				<g>
					<g>
						<g>
							<g>
								<path class="st8" d="M318.5,80.5c0,0,9.7-6,14.4,5.9c4.7,11.9-6.1,27-17.2,24.6C315.7,110.9,314.1,86.6,318.5,80.5z"/>
							</g>
						</g>
					</g>
				</g>
			</g>
			<g>
				<g>
					<g>
						<path class="st4" d="M321.3,139.3c0,0,11.1-16.1,8.5-43c0,0-2.8,21-6,24.5L321.3,139.3z"/>
					</g>
				</g>
			</g>
			<g>
				<g>
					<path class="st3" d="M329.8,98.8c-0.2,3.9-0.6,7.9-1.2,11.8c-0.4,2.6-0.8,5.1-1.4,7.6c-2,8.8-5.4,16.9-10.8,22.9
						c-10.4,11.6-25.2,6.6-37.9-4.8c-8.2-7.4-15.5-17.4-20.1-27.3v0c-0.7-1.4-1.3-2.9-1.8-4.3c-2-5.2-3.2-10.2-3.2-14.6
						c0-1.6,0-3.1,0-4.5c0-1.6,0.1-3.2,0.1-4.7c0-1,0.1-1.9,0.2-2.8c0.3-3.5,0.7-6.5,1.3-9.2c2.4-10.8,7.7-16,17.2-20.3
						c7-3.2,18.7-4.2,29.6-3c10.5,1.2,19.3,7.5,23.9,16.4c0.4,0.8,0.8,1.6,1.1,2.4c0,0,0,0,0,0c1.2,2.9,2,6,2.3,9.3
						C329.9,80.7,330.3,89.6,329.8,98.8z"/>
				</g>
			</g>
			<g>
				<path class="st8" d="M329.8,98.8c-0.2,3.9-0.6,7.9-1.2,11.8c0,0-0.1,0-0.1,0c-3.3,0-6-2.7-6-6c0-3.3,2.7-6,6-6
					C329,98.6,329.4,98.7,329.8,98.8z"/>
			</g>
			<g>
				<path class="st8" d="M295.5,103.7c0,3.3-2.7,6-6,6s-6-2.7-6-6s2.7-6,6-6S295.5,100.4,295.5,103.7z"/>
			</g>
			<g>
				<path class="st4" d="M287.1,86.9c0,0,10.2-2.9,18.4-1.2c0,0,1.1-7.3-8.2-6.7C290.5,79.5,286,80.4,287.1,86.9z"/>
			</g>
			<g>
				<path class="st4" d="M331.9,87.7c0,0-9.5-3.1-17.2-1.8c0,0-0.8-6.9,7.9-5.9C328.9,80.6,333.1,81.7,331.9,87.7z"/>
			</g>
			<g>
				<g>
					<g>
						<g>
							<path class="st8" d="M256.7,104.6c0.5,1.4,1.2,2.8,1.8,4.3v0c5,3.1,9.8,3.4,11.4,3.4c0.3,0,0.5,0,0.5,0
								c0.6,0,1.1-0.6,1.1-1.2c0-0.6-0.6-1.1-1.2-1.1c0,0-0.2,0-0.4,0C268.2,109.9,262.2,109.6,256.7,104.6z"/>
						</g>
					</g>
				</g>
			</g>
			<g>
				<g>
					<g>
						<path class="st4" d="M321,140c-4.1,7.6-8.9,9.8-23.3,8.6c-7.5-0.6-15.4-5.7-20.1-12c-3.6-4.8-4.8-10.4-5.2-14
							c-0.9-8.2-4.8-33.8-5-34.7c-4.2-0.2-9.2-1.6-13.9-2.5c0-0.8,0-1.6,0-2.4c0-0.8,0.1-1.6,0.1-2.3c0-1,0.1-1.9,0.2-2.8
							c0.3-3.5,0.7-6.5,1.3-9.2c2.4-10.8,7.7-16,17.2-20.3c7-3.2,18.7-4.2,29.6-3c10.2,1.1,18.9,7.2,23.6,15.8
							c0.1,0.2,0.2,0.4,0.3,0.6c-0.1-0.2-0.3-0.3-0.5-0.5c-5.9-5.7-26.1-3.5-33.1-2.4c-2.8,0.4-4.7,2.8-4.7,5.5c0,0.4,0,0.8,0.1,1.2
							c0.4,1.6,0.2,3.4-0.4,4.9c-0.6,1.6-1.7,3.4-3.4,3.6c-2.7,0.4-4.6,1.4-5.8,2.6c-3.6,3.4-2.4,8.7-2.4,8.7s7.2,27,11.7,28.7
							c4.5,1.7,8.6-0.8,26,0.8c0,0,9.6,1.3,13.1,2.6c0.3,0.1,0.5,0.3,0.7,0.6C329.2,121.1,324.7,133,321,140z"/>
					</g>
				</g>
			</g>
			<g>
				<g>
					<g>
						<path class="st5" d="M307.4,135c-2.2-0.4-3.6-1.2-3.7-1.3c-0.5-0.3-0.7-1-0.4-1.5c0.3-0.5,1-0.7,1.5-0.4
							c0.2,0.1,4.5,2.6,9.2,0.1c0.5-0.3,1.2-0.1,1.5,0.5c0.3,0.5,0.1,1.2-0.5,1.5C312.2,135.4,309.4,135.4,307.4,135z"/>
					</g>
				</g>
			</g>
			<g>
				<g>
					<g>
						<path class="st0" d="M298.6,124.4c0,0,13,1.9,23.1,1.2c0,0-3.6,4.9-13.4,3.8C300.7,128.4,298.6,124.4,298.6,124.4z"/>
					</g>
				</g>
			</g>
			<g>
				<path class="st4" d="M325.6,61.2c0,0-0.1,0.1-0.1,0.1c-5.9-5.7-26.1-3.5-33.1-2.4c-2.8,0.4-4.7,2.8-4.7,5.5c0,0.4,0,0.8,0.1,1.2
					c0.4,1.6,0.2,3.4-0.4,4.9c-0.6,1.6-1.7,3.4-3.4,3.6c-2.7,0.4-4.6,1.4-5.8,2.6c-11.5,1.4-23.6,5.9-24.6,6.3
					c0-0.8,0.1-1.6,0.1-2.3c0-1,0.1-1.9,0.2-2.8c0.3-3.5,0.7-6.5,1.3-9.2c2.4-10.8,7.7-16,17.2-20.3c7-3.2,18.7-4.2,29.6-3
					C312.2,46.5,320.9,52.6,325.6,61.2z"/>
			</g>
			<g>
				<path class="st4" d="M294.3,58.6c0,0,8.4-1.7,13.5,2.5s6.4,5,9.4,4.9c3.2-0.1,2-6.1,6.2-6.1C327.6,59.9,302.6,50.5,294.3,58.6z"
					/>
			</g>
			<g>
				<g>
					<g>
						<g>
							<g>
								<path class="st3" d="M263.7,80c0,0-10.7-5.2-13.3,7.3c-2.6,12.5,9.5,23.5,20.4,22.7C270.8,110,269.1,85.3,263.7,80z"/>
							</g>
						</g>
					</g>
				</g>
				<g>
					<g>
						<g>
							<g>
								<g>
									<g>
										<g>
											<g>
												<path class="st8" d="M265.1,101c-0.5,0-1-0.4-1.1-1c-1.4-7.7-7.2-11.7-7.3-11.7c-0.5-0.4-0.7-1.1-0.3-1.6
													c0.4-0.5,1.1-0.7,1.6-0.3c0.3,0.2,6.7,4.6,8.3,13.2c0.1,0.6-0.3,1.2-0.9,1.3C265.2,101,265.1,101,265.1,101z"/>
											</g>
										</g>
									</g>
								</g>
							</g>
						</g>
					</g>
					<g>
						<g>
							<g>
								<g>
									<g>
										<g>
											<g>
												<path class="st8" d="M256.2,95.4c-0.4,0-0.8-0.2-1-0.6c-0.3-0.6-0.1-1.3,0.5-1.6c0.2-0.1,3.9-2,6.9-1.5
													c0.6,0.1,1,0.7,0.9,1.3c-0.1,0.6-0.7,1-1.3,0.9c-1.9-0.3-4.6,0.8-5.4,1.2C256.6,95.3,256.4,95.4,256.2,95.4z"/>
											</g>
										</g>
									</g>
								</g>
							</g>
						</g>
					</g>
				</g>
			</g>
			<g>
				<g>
					<g>
						<g>
							<path class="st8" d="M314.2,113.4c-1.5,0-3.1-0.3-3.9-0.5c-0.7-0.2-1.1-0.8-0.9-1.5c0.2-0.7,0.8-1.1,1.5-0.9
								c1.6,0.4,3.4,0.6,4.1,0.4c-0.1-2.1-1.5-11.4-2.8-19.7c-0.1-0.7,0.4-1.3,1-1.4c0.7-0.1,1.3,0.4,1.4,1c0.7,4.4,3,19,2.8,20.8
								c-0.1,0.6-0.4,1-0.9,1.4C316.1,113.2,315.2,113.4,314.2,113.4z"/>
						</g>
					</g>
				</g>
			</g>
			<g>
				<g>
					<g>
						<g>
							<g>
								<path class="st4" d="M298.4,93.2c0,2.2-0.9,3.9-2.1,4c-1.2,0-2.2-1.7-2.2-3.9c0-2.2,0.9-3.9,2.1-4
									C297.3,89.3,298.3,91.1,298.4,93.2z"/>
							</g>
						</g>
					</g>
				</g>
			</g>
			<g>
				<g>
					<g>
						<g>
							<g>
								<path class="st4" d="M324.8,93.2c0,2.2-0.9,3.9-2.1,4c-1.2,0-2.2-1.7-2.2-3.9c0-2.2,0.9-3.9,2.1-4
									C323.7,89.3,324.7,91.1,324.8,93.2z"/>
							</g>
						</g>
					</g>
				</g>
			</g>
			<g>
				<g>
					<g>
						<g>
							<path class="st0" d="M314.8,95.1c0-7,5.2-12.7,11.5-12.7c6.3,0,11.5,5.7,11.5,12.7c0,7-5.2,12.7-11.5,12.7
								C319.9,107.8,314.8,102.1,314.8,95.1z M316.3,95.1c0,6.2,4.5,11.2,10,11.2c5.5,0,10-5,10-11.2c0-6.2-4.5-11.2-10-11.2
								C320.8,83.9,316.3,88.9,316.3,95.1z"/>
						</g>
					</g>
				</g>
				<g>
					<g>
						<g>
							<path class="st0" d="M286.3,95.1c0-7,5.2-12.7,11.5-12.7c6.3,0,11.5,5.7,11.5,12.7c0,7-5.2,12.7-11.5,12.7
								C291.4,107.8,286.3,102.1,286.3,95.1z M287.8,95.1c0,6.2,4.5,11.2,10,11.2c5.5,0,10-5,10-11.2c0-6.2-4.5-11.2-10-11.2
								C292.3,83.9,287.8,88.9,287.8,95.1z"/>
						</g>
					</g>
				</g>
				<g>
					<g>
						<g>
							<g>
								<path class="st0" d="M275.5,82.9c6.1,1.3,10.4,4.4,12.3,5.9c0.6,0.5,1,0.8,1,0.9l-1,1.1c0,0-0.2-0.2-0.6-0.6
									c-1.5-1.3-5.7-4.4-11.6-5.7L275.5,82.9z"/>
							</g>
						</g>
					</g>
				</g>
				<g>
					<g>
						<g>
							<path class="st0" d="M307.6,89.6c4.1-3.5,9-0.4,9.2-0.2l0.8-1.2c-0.1,0-6-3.9-11,0.3L307.6,89.6z"/>
						</g>
					</g>
				</g>
			</g>
		</g>
	</g>
</g>
</svg>
